<?xml version="1.0" encoding="UTF-8"?>
<svg xmlns="http://www.w3.org/2000/svg" version="1.1" viewBox="0 0 841.9 595.3">
  <!-- Generator: Adobe Illustrator 28.7.7, SVG Export Plug-In . SVG Version: 1.2.0 Build 194)  -->
  <g>
    <g id="_レイヤー_3" data-name="レイヤー_3">
      <path d="M204.5,323.6c-10.4,10.4-25.7,13.1-39.8,6.9-7.3-3.2-13-8.9-16.2-16.3-5-11.7-4.1-24.1,2.5-34.1,6.5-9.8,17.3-15.7,29-15.7s18,3.6,24.5,10.2l.4.4,16.9-16.9-.4-.4c-16.5-16.5-40.8-21.5-63.5-13.1-14.8,5.5-26.6,17.1-32.2,31.8-7.3,19.2-5.2,39.6,6,55.8,11,15.9,29,25.4,48.3,25.4s30.3-6.1,41.4-17.2l.4-.4-16.9-16.9-.4.4Z"/>
      <g>
        <path d="M324.3,276.3c-1.3-19.4-18-34.2-37.4-34.2h-46.1s0,114,0,114h22.3v-38.6c0-1,.8-1.9,1.9-1.9h12.4c2.9,0,5.6,1.7,6.9,4.3l17.4,36.2h24.8l-21.5-44.7c0,0,0-.1,0-.1,12.2-6.6,20.4-19.9,19.3-34.9ZM289.5,293.2h-24.6c-1,0-1.9-.8-1.9-1.9v-24.9c0-1,.8-1.9,1.9-1.9h22.7c10.9,0,19.1,12.3,11.3,23.8-2.1,3.1-5.7,5-9.4,5Z"/>
        <path d="M720.4,276.3c-1.3-19.4-18-34.2-37.4-34.2h-46.1s0,114,0,114h22.3v-38.6c0-1,.8-1.9,1.9-1.9h12.4c2.9,0,5.6,1.7,6.9,4.3l17.4,36.2h24.8l-21.5-44.7c0,0,0-.1,0-.1,12.2-6.6,20.4-19.9,19.3-34.9ZM685.6,293.2h-24.6c-1,0-1.9-.8-1.9-1.9v-24.9c0-1,.8-1.9,1.9-1.9h22.7c10.9,0,19.1,12.3,11.3,23.8-2.1,3.1-5.7,5-9.4,5Z"/>
        <path d="M544.7,242.1v114h71.8v-22.3h-47.1c-1.3,0-2.3-1-2.3-2.3v-19.8c0-1.3,1-2.3,2.3-2.3h42.9v-22.3h-42.9c-1.3,0-2.3-1-2.3-2.3v-17.9c0-1.3,1-2.3,2.3-2.3h47.1v-22.3h-71.8Z"/>
        <path d="M440.9,264.4h29.2c1,0,1.9.8,1.9,1.9v89.7h22.3v-89.7c0-1,.8-1.9,1.9-1.9h29.2v-22.3h-84.5v22.3Z"/>
        <path d="M377.4,242.1l-38.8,114h23.6l6.3-18.6c.7-2,2.6-3.3,4.7-3.3h33.3c2.1,0,4,1.3,4.7,3.3l6.3,18.6h23.6l-38.8-114h-24.9ZM377.7,310.5l12.1-35.6,12.1,35.6c.2.6-.3,1.3-.9,1.3h-22.4c-.7,0-1.2-.7-.9-1.3Z"/>
      </g>
    </g>
  </g>
</svg>