<?xml version="1.0" encoding="UTF-8"?><svg id="_レイヤー_1" xmlns="http://www.w3.org/2000/svg" viewBox="0 0 1249.14 464.18"><defs><style>.cls-1{fill:#e77000;}.cls-2{fill:#595757;}</style></defs><path class="cls-1" d="M0,255.15v-117.59c144.7-.04,266.24-54.29,300.49-127.67C278.93,148.63,152.61,255.15,0,255.15M238.64,317.04c28,8.6,57.5,13.22,87.97,13.22v133.91c-59.48,0-115.27-22.59-163.3-62.06C115.27,441.59,59.5,464.18,0,464.18v-133.91c171.25,0,311.83-145.17,326.6-330.27,0,.13,0,.26,0,.39,0,122.44-33.41,233.81-88,316.7,0-.02.02-.03.03-.05"/><polygon class="cls-2" points="705.07 156.81 705.07 194.64 755.75 194.64 755.75 215.75 705.07 215.75 705.07 332.81 680.88 332.81 680.88 215.75 630.13 215.75 630.13 194.64 680.88 194.64 680.88 156.81 705.07 156.81"/><path class="cls-2" d="M740.74,146.49c-11,0-19.92,8.92-19.92,19.92s8.92,19.91,19.92,19.91,19.92-8.91,19.92-19.91-8.91-19.92-19.92-19.92ZM740.74,174.72c-4.58,0-8.3-3.71-8.3-8.3s3.72-8.3,8.3-8.3,8.3,3.72,8.3,8.3-3.72,8.3-8.3,8.3Z"/><path class="cls-2" d="M460.95,317.72c37.76-26.32,66.08-74.45,82.14-129.02h-74.21v-23.12h106.25c-8.45,36.86-19.11,62.78-29.46,82.36,16.98,17.44,34.14,42.44,51.98,65.99l-18.92,19.62c-14.22-22.06-27.03-47.77-43.56-66.94-5.57,8.56-13.67,20.52-23.74,32.28-9.9,11.34-25.61,26.82-39.23,35.08l-11.26-16.26Z"/><path class="cls-2" d="M920.5,235.52v24.92h-132.62v-24.92h132.62Z"/><path class="cls-2" d="M952.83,316.87c50.19-21.14,78.43-66.15,87.84-152.16h29.44c-11.34,77.31-42.15,148.06-110.18,170.08l-7.11-17.91Z"/><path class="cls-2" d="M1108.38,333.65l-16.39-8.82c8.12-20.36,13.39-27.59,13.39-86.21v-73.79h68.79v-17.93h27.19v17.93h46.85v22.25h-121.18v48.69c0,67.1-11.8,82.49-18.66,97.88Z"/><path class="cls-2" d="M1249.14,211.93v22.15h-44.5v76.29c0,10.3.04,22.13-14.99,22.46h-30.56l.03-21.78,17.53-.72c3.24,0,4.02-1.03,4.02-5.77v-70.48h-44.02v-22.15h112.49Z"/><path class="cls-2" d="M625.96,309.12l18.82,17.3c12.6-19.23,19.8-50.9,22.13-90.9h-21.11c-3.17,44.46-13.62,63.4-19.85,73.6Z"/><path class="cls-2" d="M759.93,309.12l-18.82,17.3c-12.6-19.23-19.8-50.9-22.13-90.9h21.11c3.18,44.46,13.62,63.4,19.84,73.6Z"/><path class="cls-2" d="M942.85,227.21h25.07c-3.71-21.38-9.71-41.33-15.62-59.41h-20.81c4.63,18.02,8.46,37.98,11.36,59.41Z"/><path class="cls-2" d="M984.8,227.21h24.71c-4.82-21.38-11.87-41.33-18.74-59.41h-20.88c5.57,18.02,10.89,37.98,14.91,59.41Z"/><path class="cls-2" d="M1002.51,384.2h8.32l15.57,69.73h-9.6l-3.13-14.98h-14l-3.13,14.98h-9.61l15.58-69.73ZM1006.71,402.73l-.1-1.16-.09,1.16-5.09,26.82h10.38l-5.09-26.82Z"/><path class="cls-2" d="M1082.89,384.2h29.77v9.4h-19.79v20.47h17.24v9.4h-17.24v20.47h19.79v9.99h-29.77v-69.73Z"/><path class="cls-2" d="M1225.42,424.45l-13.71-40.25h10.57l8.03,27.72h.19l8.03-27.72h10.58l-13.71,40.25v29.48h-9.99v-29.48Z"/><path class="cls-2" d="M896.59,393.64h-11.56v-9.4h33.11v9.4h-11.56v60.33h-9.99v-60.33Z"/><polygon class="cls-2" points="659.42 384.23 659.42 430.51 658.45 427.03 643.37 384.23 633.77 384.23 633.77 453.97 642.98 453.97 642.98 408.17 643.95 411.28 659.23 453.97 668.64 453.97 668.64 384.23 659.42 384.23"/><polygon class="cls-2" points="1149.33 384.19 1149.33 430.48 1148.37 426.99 1133.28 384.19 1123.68 384.19 1123.68 453.93 1132.9 453.93 1132.9 408.14 1133.86 411.24 1149.15 453.93 1158.55 453.93 1158.55 384.19 1149.33 384.19"/><path class="cls-2" d="M523.86,384.23h-8.32l-15.57,69.74h9.6l3.13-14.99h14.01l3.13,14.99h9.59l-15.57-69.74ZM514.46,429.58l5.09-26.82.08-1.16.13,1.16,5.08,26.82h-10.37Z"/><path class="cls-2" d="M608.33,384.23h-8.32l-15.57,69.74h9.6l3.13-14.99h14.01l3.13,14.99h9.59l-15.57-69.74ZM598.93,429.58l5.09-26.82.08-1.16.13,1.16,5.08,26.82h-10.37Z"/><path class="cls-2" d="M459.42,447.21c1.95,2.65,6.4,7.34,13.66,7.34,9.06,0,17.12-6.1,17.12-17.07v-53.25h-9.99v52.81c0,4.76-3.44,7.51-6.76,7.51s-6.02-2.36-7.01-4.22l-7.02,6.88Z"/><path class="cls-2" d="M580.79,395.52c-.54-1.75-3.08-11.29-16.4-11.29h-15.04v69.74h9.99v-27.23h5.01c8.91,0,13.87-3.83,16.45-11.45,1.24-3.67,1.44-15.11,0-19.77ZM564.33,417.34h-4.99v-23.7h4.99c7.52,0,8.01,4.28,8.01,11.79s-.49,11.92-8.01,11.92Z"/><path class="cls-2" d="M783.23,395.52c-.54-1.75-3.08-11.29-16.4-11.29h-15.04v69.74h9.99v-27.23h5.01c8.91,0,13.87-3.83,16.45-11.45,1.24-3.67,1.44-15.11,0-19.77ZM766.77,417.34h-4.99v-23.7h4.99c7.52,0,8.01,4.28,8.01,11.79s-.49,11.92-8.01,11.92Z"/><path class="cls-2" d="M811.98,383.25c-8.22,0-16.77,5.82-16.77,17.06v37.58c0,11.24,8.55,17.06,16.77,17.06s16.77-5.82,16.77-17.06v-37.58c0-11.24-8.55-17.06-16.77-17.06ZM818.77,437.97c0,4.53-2.82,6.99-6.79,6.99s-6.78-2.46-6.78-6.99v-37.72c0-4.54,2.81-6.99,6.78-6.99s6.79,2.46,6.79,6.99v37.72Z"/><path class="cls-2" d="M1058.6,423.47v14.45c0,4.53-2.8,6.99-6.77,6.99s-6.76-2.46-6.76-6.99v-37.71c0-4.54,2.8-7,6.76-7s6.77,2.46,6.77,7v3.95h9.96v-3.89c0-11.24-8.52-17.05-16.72-17.05s-16.72,5.82-16.72,17.05v37.58c0,11.25,8.52,17.06,16.72,17.06s16.72-5.82,16.72-17.06v-23.78h-17.97v9.4h8.01Z"/><path class="cls-2" d="M879.96,453.97l-10.89-32.23c2.13-1.13,4.52-3.65,5.86-6.22,2.42-4.67,2.97-16.05.27-21.93-2.22-4.8-5.79-9.35-16.28-9.35h-15.58v69.73h9.99v-29.75h6.37l9.7,29.75h10.58ZM853.33,415.41v-21.77h4.99c7.52,0,8.79,3.37,8.79,10.88s-1.27,10.89-8.79,10.89h-4.99Z"/><path class="cls-2" d="M729.21,435.44c0,5.39-2,9.51-7.43,9.51-3.96,0-7.15-3.53-7.15-8.08v-2.98h-9.61v4.67c0,7.77,6.59,16.01,16.76,16.01,9.14,0,17.03-6.21,17.03-19.13,0-11.92-1.45-15.69-8.63-19.25-1.82-.9-3.17-1.68-9.7-4.31-6.26-2.51-5.83-6.64-5.83-9.49,0-5.39,2-9.51,7.42-9.51,3.96,0,7.15,3.53,7.15,8.07v3.37h9.61v-5.04c0-7.78-6.59-16.01-16.76-16.01-9.14,0-17.03,6.18-17.03,19.1,0,9.13,2.24,14.46,10.86,18.01,11.19,4.62,13.29,3.38,13.3,15.07Z"/><path class="cls-2" d="M949.65,435.83c0,5.4-1.99,9.51-7.43,9.51-3.96,0-7.15-3.54-7.15-8.08v-3.37h-9.61v5.05c0,7.77,6.6,16.01,16.76,16.01,9.14,0,17.03-6.21,17.03-19.13,0-11.92-1.45-16.07-8.63-19.64-1.82-.9-3.17-1.68-9.69-4.31-6.27-2.51-5.84-6.64-5.84-9.49,0-5.39,2-9.51,7.42-9.51,3.96,0,7.15,3.53,7.15,8.07v3.37h9.62v-5.04c0-7.78-6.59-16.01-16.76-16.01-9.15,0-17.03,6.18-17.03,19.1,0,9.13,2.24,14.46,10.86,18.01,11.19,4.62,13.29,3.77,13.29,15.46Z"/><path class="cls-2" d="M1195.54,437.92c0,4.53-2.79,6.99-6.72,6.99s-6.72-2.46-6.72-6.99v-37.71c0-4.54,2.79-7,6.72-7s6.72,2.46,6.72,7v3.95h9.89v-3.9c0-11.24-8.47-17.05-16.61-17.05s-16.6,5.82-16.6,17.05v37.58c0,11.25,8.46,17.06,16.6,17.06s16.61-5.82,16.61-17.06v-3.9h-9.89v3.98Z"/></svg>